<svg xmlns="http://www.w3.org/2000/svg" xmlns:xlink="http://www.w3.org/1999/xlink" viewBox="0 0 842.89 260.53"><defs><style>.cls-1,.cls-31{fill:none;}.cls-2{isolation:isolate;}.cls-3{fill:#fff;}.cls-4{fill:url(#Cast_Iron);}.cls-5{clip-path:url(#clip-path);}.cls-6{fill:#761312;}.cls-7{clip-path:url(#clip-path-2);}.cls-8{fill:#7b1412;}.cls-9{fill:#7f1513;}.cls-10{fill:#841514;}.cls-11{fill:#881614;}.cls-12{fill:#8d1715;}.cls-13{fill:#911816;}.cls-14{fill:#961816;}.cls-15{fill:#9a1917;}.cls-16{clip-path:url(#clip-path-3);}.cls-17{fill:#721311;}.cls-18{clip-path:url(#clip-path-4);}.cls-19{fill:#a11a18;}.cls-20{clip-path:url(#clip-path-5);}.cls-21{clip-path:url(#clip-path-6);}.cls-22{clip-path:url(#clip-path-7);}.cls-23{clip-path:url(#clip-path-8);}.cls-24{clip-path:url(#clip-path-9);}.cls-25{clip-path:url(#clip-path-10);}.cls-26{fill:#951816;}.cls-27{fill:#be1f1d;}.cls-28{fill:#8b8b8b;}.cls-29{opacity:0.72;}.cls-29,.cls-35{mix-blend-mode:multiply;}.cls-29,.cls-35,.cls-37{filter:url(#AI_GaussianBlur_4);}.cls-30{fill:#3f403f;}.cls-31{stroke:#3f403f;stroke-width:0.25px;}.cls-32{fill:url(#radial-gradient);}.cls-33{opacity:0.87;filter:url(#AI_GaussianBlur_7);}.cls-34{fill:#e32522;}.cls-35{opacity:0.53;}.cls-36{fill:#be0c1d;}.cls-37{mix-blend-mode:lighten;}</style><linearGradient id="Cast_Iron" x1="778.85" y1="222.53" x2="858.25" y2="222.53" gradientUnits="userSpaceOnUse"><stop offset="0.01" stop-color="#85868c"/><stop offset="0.53" stop-color="#989899"/><stop offset="1" stop-color="#5c5c63"/></linearGradient><clipPath id="clip-path" transform="translate(-15.36 -35.26)"><path class="cls-1" d="M784.55,217.45l-5-3.53a14.71,14.71,0,0,0,3.24,1.66l5,3.53A14.71,14.71,0,0,1,784.55,217.45Z"/></clipPath><clipPath id="clip-path-2" transform="translate(-15.36 -35.26)"><path class="cls-1" d="M798.24,210l-5-3.53a3.78,3.78,0,0,1-.64-.57,3.47,3.47,0,0,1-.82-1.86,3,3,0,0,1,.81-2.69,5.77,5.77,0,0,1,3.21-1.46l5,3.53a5.77,5.77,0,0,0-3.21,1.46,3,3,0,0,0-.81,2.69,3.47,3.47,0,0,0,.82,1.86A3.78,3.78,0,0,0,798.24,210Z"/></clipPath><clipPath id="clip-path-3" transform="translate(-15.36 -35.26)"><path class="cls-1" d="M793.66,220.35l5,3.53a4.63,4.63,0,0,0-1.31,0,4.78,4.78,0,0,0-3.32,2,5.57,5.57,0,0,0-.74,4.05l-5-3.53a5.57,5.57,0,0,1,.74-4.05,4.78,4.78,0,0,1,3.32-2A4.63,4.63,0,0,1,793.66,220.35Z"/></clipPath><clipPath id="clip-path-4" transform="translate(-15.36 -35.26)"><path class="cls-1" d="M795,220.63l5,3.53a5.8,5.8,0,0,0-1.32-.27l-5-3.53A5.8,5.8,0,0,1,795,220.63Z"/></clipPath><clipPath id="clip-path-5" transform="translate(-15.36 -35.26)"><path class="cls-1" d="M816.3,197.78l5,3.53-.23-.15q-1.67-1-5.73-.26l-5-3.53q4.06-.72,5.73.26Z"/></clipPath><clipPath id="clip-path-6" transform="translate(-15.36 -35.26)"><path class="cls-1" d="M795.67,237.5l-5-3.53a5.34,5.34,0,0,1-1.88-3.78l5,3.53A5.34,5.34,0,0,0,795.67,237.5Z"/></clipPath><clipPath id="clip-path-7" transform="translate(-15.36 -35.26)"><path class="cls-1" d="M827.77,185.88l5,3.53q3.2,2.27,4,7.87l-5-3.53Q831,188.15,827.77,185.88Z"/></clipPath><clipPath id="clip-path-8" transform="translate(-15.36 -35.26)"><path class="cls-1" d="M783.69,248.83l-5-3.53a10.64,10.64,0,0,0,2.17,1.18q5.9,2.39,19.28,0l5,3.53q-13.38,2.36-19.28,0A10.64,10.64,0,0,1,783.69,248.83Z"/></clipPath><clipPath id="clip-path-9" transform="translate(-15.36 -35.26)"><path class="cls-1" d="M840.36,216.81l5,3.53a12.85,12.85,0,0,1,.07,2.24c0,.92-.11,1.93-.25,3l-5-3.53c.13-1.06.21-2.06.25-3A12.85,12.85,0,0,0,840.36,216.81Z"/></clipPath><clipPath id="clip-path-10" transform="translate(-15.36 -35.26)"><path class="cls-1" d="M837.56,234.18l5,3.53a14.13,14.13,0,0,1-5.66,5.45q-3.61,1.93-12.18,3.44l-5-3.53q8.56-1.51,12.18-3.44A14.13,14.13,0,0,0,837.56,234.18Z"/></clipPath><filter id="AI_GaussianBlur_4" name="AI_GaussianBlur_4"><feGaussianBlur stdDeviation="4"/></filter><radialGradient id="radial-gradient" cx="108.89" cy="157.22" fx="157.66105140821765" r="48.79" gradientTransform="translate(0.48 -0.33) rotate(0.18)" gradientUnits="userSpaceOnUse"><stop offset="0" stop-color="#e4e0de"/><stop offset="0" stop-color="#f0eeed"/><stop offset="0" stop-color="#fff"/><stop offset="0.02" stop-color="#e6e6e7"/><stop offset="0.04" stop-color="#d0d1d2"/><stop offset="0.06" stop-color="#bfc0c2"/><stop offset="0.09" stop-color="#b4b5b6"/><stop offset="0.14" stop-color="#adaeb0"/><stop offset="0.25" stop-color="#abacae"/><stop offset="0.57" stop-color="#7a7f82"/><stop offset="0.85" stop-color="#545d60"/><stop offset="1" stop-color="#465053"/></radialGradient><filter id="AI_GaussianBlur_7" name="AI_GaussianBlur_7"><feGaussianBlur stdDeviation="7"/></filter></defs><title>logosimbolo y copy R&amp;amp;M fondo trasparente</title><g class="cls-2"><g id="Layer_1" data-name="Layer 1"><path class="cls-3" d="M248.43,173.89q12.59,0,17.14,3.74t4.55,13.62q0,6.87-2,10.21a10.27,10.27,0,0,1-6.79,4.48,11.27,11.27,0,0,1,6.3,3.52,9.9,9.9,0,0,1,2.1,6.54v10.85H253.52v-8.07q0-3.13-1.48-4.3t-5.82-1.17H222.11v13.55H205.89v-53Zm-.6,13.2H222.11V200h25.72q3.24,0,4.54-1.51t1.3-5.46q0-3.13-1.39-4.55A6,6,0,0,0,247.83,187.09Z" transform="translate(-15.36 -35.26)"/><path class="cls-3" d="M340.21,186.8H298.49v8h39.3v11.13h-39.3V214h42.36v12.8H282.34v-53h57.87Z" transform="translate(-15.36 -35.26)"/><path class="cls-3" d="M368,226.85H352.24v-53h23.87L395,207l19.21-33.08h23.55v53H422.1V189.11l-21.88,37.74H389.66L368,189.11Z" transform="translate(-15.36 -35.26)"/><path class="cls-3" d="M508.43,186.8H466.71v8H506v11.13h-39.3V214h42.36v12.8H450.56v-53h57.87Z" transform="translate(-15.36 -35.26)"/><path class="cls-3" d="M519.71,209.25l16,0v1q0,3,1.46,4t6.12,1h20.31a7,7,0,0,0,4.27-1,4,4,0,0,0,1.28-3.36,3.87,3.87,0,0,0-1.48-3.41q-1.47-1-6.35-1.39l-25.4-.57q-9.53-.29-12.89-3.63t-3.36-12.16a26.55,26.55,0,0,1,.89-7.51,11.49,11.49,0,0,1,2.85-4.91,13.15,13.15,0,0,1,6-3.13q3.73-.92,12.16-.92h24.69q9.18,0,13.21,3.34t4,10.85q0,.5,0,1.07t-.13,1.85H567.8v-.21a5.32,5.32,0,0,0-1.33-3.95,5.48,5.48,0,0,0-4-1.32H543.83q-4.66,0-6.15.92a3.5,3.5,0,0,0-1.5,3.24,3.84,3.84,0,0,0,1.35,3.29q1.35,1,5,1.3l26.61.43q9.1.25,12.82,4.09t3.71,13.13a21.26,21.26,0,0,1-1.37,8.54,12.26,12.26,0,0,1-4.61,5.16,15.42,15.42,0,0,1-5.8,1.94,71.76,71.76,0,0,1-10.6.59H541.73q-13.27,0-17.75-3t-4.48-11.08q0-.46.05-1.55C519.59,211.17,519.64,210.29,519.71,209.25Z" transform="translate(-15.36 -35.26)"/><path class="cls-3" d="M610.08,226.85H592.43l28.92-53H642l28.38,53H652.62L647.49,218H615.23Zm11.28-21.55H641.7l-10.28-18.75Z" transform="translate(-15.36 -35.26)"/><path class="cls-3" d="M676.82,209.25l16,0v1q0,3,1.46,4t6.12,1h20.31a7,7,0,0,0,4.27-1,4,4,0,0,0,1.28-3.36,3.87,3.87,0,0,0-1.48-3.41q-1.47-1-6.35-1.39l-25.4-.57q-9.53-.29-12.89-3.63t-3.36-12.16a26.55,26.55,0,0,1,.89-7.51,11.49,11.49,0,0,1,2.85-4.91,13.15,13.15,0,0,1,6-3.13q3.73-.92,12.16-.92h24.69q9.18,0,13.21,3.34t4,10.85q0,.5,0,1.07t-.13,1.85H724.91v-.21a5.32,5.32,0,0,0-1.33-3.95,5.48,5.48,0,0,0-4-1.32H700.93q-4.66,0-6.15.92a3.5,3.5,0,0,0-1.5,3.24,3.84,3.84,0,0,0,1.35,3.29q1.35,1,5,1.3l26.61.43q9.1.25,12.82,4.09t3.71,13.13a21.26,21.26,0,0,1-1.37,8.54,12.26,12.26,0,0,1-4.61,5.16,15.42,15.42,0,0,1-5.8,1.94,71.76,71.76,0,0,1-10.6.59H698.83q-13.27,0-17.75-3t-4.48-11.08q0-.46.05-1.55C676.69,211.17,676.74,210.29,676.82,209.25Z" transform="translate(-15.36 -35.26)"/><path class="cls-3" d="M180.36,295.16H165.94v-53h21.89l17.32,33.08,17.61-33.08h21.59v53H230V257.42l-20.06,37.74h-9.69l-19.9-37.74Z" transform="translate(-15.36 -35.26)"/><path class="cls-3" d="M315.8,255.11H277.54v8h36v11.13h-36v8.11h38.85v12.8H262.73v-53H315.8Z" transform="translate(-15.36 -35.26)"/><path class="cls-3" d="M399.12,295.16H377.4l-29.13-38.52v38.52H333.46v-53h21.95L384.34,281V242.2h14.78Z" transform="translate(-15.36 -35.26)"/><path class="cls-3" d="M417.59,277.55l14.65,0v1q0,3,1.34,4t5.61,1H457.8a6,6,0,0,0,3.92-1,4.24,4.24,0,0,0,1.17-3.36,4,4,0,0,0-1.35-3.41q-1.35-1-5.82-1.39l-23.29-.57q-8.74-.28-11.82-3.63T417.52,258a28.83,28.83,0,0,1,.81-7.5,10.64,10.64,0,0,1,8.15-8q3.43-.93,11.16-.92h22.64q8.41,0,12.12,3.34t3.7,10.85q0,.5,0,1.07t-.12,1.85H461.68v-.21a5.61,5.61,0,0,0-1.22-3.95,4.77,4.77,0,0,0-3.67-1.32H439.7q-4.27,0-5.64.92a3.62,3.62,0,0,0-1.37,3.24,4,4,0,0,0,1.24,3.29q1.24,1,4.57,1.3l24.4.43q8.35.25,11.76,4.09t3.41,13.12a23,23,0,0,1-1.26,8.54,12,12,0,0,1-4.22,5.16,13.38,13.38,0,0,1-5.32,1.94,60.59,60.59,0,0,1-9.72.59H437.78q-12.17,0-16.28-3t-4.11-11.08q0-.46,0-1.55T417.59,277.55Z" transform="translate(-15.36 -35.26)"/><path class="cls-3" d="M507.24,295.16H491.07l26.52-53H536.5l26,53H546.25l-4.7-8.82H512Zm10.34-21.55h18.66l-9.43-18.74Z" transform="translate(-15.36 -35.26)"/><path class="cls-3" d="M623.35,280.22a19.32,19.32,0,0,1-1,6.33,13.26,13.26,0,0,1-2.85,4.91,12.38,12.38,0,0,1-5.69,3.27,38,38,0,0,1-9.87,1H593.58q-11,0-15.09-3.52t-4.16-13v-7h14.35v1.88q0,5.19,1.42,6.83t5.46,1.64h6.69q3.59,0,4.94-1.49t1.35-6V242.2h14.81Z" transform="translate(-15.36 -35.26)"/><path class="cls-3" d="M693.8,255.11H655.54v8h36v11.13h-36v8.11h38.85v12.8H640.74v-53H693.8Z" transform="translate(-15.36 -35.26)"/><path class="cls-3" d="M711.78,277.55l14.64,0v1q0,3,1.34,4t5.61,1H752a6,6,0,0,0,3.91-1,4.24,4.24,0,0,0,1.17-3.36,4,4,0,0,0-1.36-3.41q-1.35-1-5.82-1.39l-23.29-.57q-8.74-.28-11.82-3.63T711.72,258a28.83,28.83,0,0,1,.81-7.5,10.64,10.64,0,0,1,8.15-8q3.43-.93,11.15-.92h22.64q8.42,0,12.12,3.34t3.7,10.85q0,.5,0,1.07c0,.38,0,1-.11,1.85H755.88v-.21a5.62,5.62,0,0,0-1.22-3.95,4.77,4.77,0,0,0-3.67-1.32H733.89q-4.27,0-5.64.92a3.62,3.62,0,0,0-1.37,3.24,4,4,0,0,0,1.24,3.29q1.24,1,4.57,1.3l24.4.43q8.35.25,11.76,4.09t3.41,13.12a23,23,0,0,1-1.26,8.54,12,12,0,0,1-4.22,5.16,13.38,13.38,0,0,1-5.32,1.94,60.59,60.59,0,0,1-9.72.59H732q-12.16,0-16.28-3t-4.11-11.08q0-.46,0-1.55T711.78,277.55Z" transform="translate(-15.36 -35.26)"/><path class="cls-4" d="M843.21,246.58a13.76,13.76,0,0,1-6.49,4.45q-3.9,1.29-12.74,1.29H803.82q-13.79,0-19.38-3.44t-5.59-11.68v-7.5q0-5.47,3-8.26t9.07-3.11a12,12,0,0,1-4.14-3.61,8.84,8.84,0,0,1-1.17-4.79v-6.49q0-6.13,3.32-8.42t15.59-2.29h16.72q13.4,0,17.74,2.68t4.34,9.71v7.19H828.4c0-.18,0-.44,0-.78s0-.59,0-.74q0-3.28-1.54-4.55T821.21,205h-15a5.7,5.7,0,0,0-3.44.9,3,3,0,0,0-1.21,2.54,3.63,3.63,0,0,0,.57,2,4.68,4.68,0,0,0,1.66,1.5l29.7,15.51a11.16,11.16,0,0,0,.29-1.68q.1-.94.1-2.78c0-.18,0-.47,0-.86s0-.69,0-.9,0-.51,0-.66,0-.29,0-.39h14.62v9.53a13,13,0,0,1-.26,2.25q-.26,1.39-.68,2.95l10.63,5.9-5,11.14Zm-14-6.8-26.84-14.26a6.3,6.3,0,0,0-1.29-.51,5,5,0,0,0-1.33-.19,4.72,4.72,0,0,0-3.63,1.43,5.53,5.53,0,0,0-1.33,3.93V234q0,3.32,1.88,4.55t7.15,1.23Z" transform="translate(-15.36 -35.26)"/><g class="cls-2"><g class="cls-2"><g class="cls-5"><g class="cls-2"><path class="cls-6" d="M782.82,215.58l5,3.53a14.71,14.71,0,0,1-3.24-1.66l-5-3.53a14.71,14.71,0,0,0,3.24,1.66" transform="translate(-15.36 -35.26)"/></g></g></g><g class="cls-2"><g class="cls-7"><g class="cls-2"><path class="cls-6" d="M795.83,199.93l5,3.53a6.12,6.12,0,0,0-3,1.24l-5-3.53a6.12,6.12,0,0,1,3-1.24" transform="translate(-15.36 -35.26)"/><path class="cls-8" d="M792.85,201.17l5,3.53-.23.21-.13.14-5-3.53.13-.14.23-.21" transform="translate(-15.36 -35.26)"/><path class="cls-9" d="M792.49,201.52l5,3.53a3.16,3.16,0,0,0-.23.3l-5-3.53a3.16,3.16,0,0,1,.23-.3" transform="translate(-15.36 -35.26)"/><path class="cls-10" d="M792.26,201.83l5,3.53a2.92,2.92,0,0,0-.17.28l-5-3.53a2.92,2.92,0,0,1,.17-.28" transform="translate(-15.36 -35.26)"/><path class="cls-11" d="M792.1,202.11l5,3.53a2.82,2.82,0,0,0-.13.28l-5-3.53a2.82,2.82,0,0,1,.13-.28" transform="translate(-15.36 -35.26)"/><path class="cls-12" d="M792,202.39l5,3.53a2.84,2.84,0,0,0-.1.3l-5-3.53a2.84,2.84,0,0,1,.1-.3" transform="translate(-15.36 -35.26)"/><path class="cls-13" d="M791.87,202.69l5,3.53a3,3,0,0,0-.07.36l-5-3.53a3,3,0,0,1,.07-.36" transform="translate(-15.36 -35.26)"/><path class="cls-14" d="M791.8,203l5,3.53a3.34,3.34,0,0,0,0,.5l-5-3.53a3.34,3.34,0,0,1,0-.5" transform="translate(-15.36 -35.26)"/><path class="cls-15" d="M791.77,203.54l5,3.53a4,4,0,0,0,0,.53,3.5,3.5,0,0,0,.76,1.79l-5-3.53a3.5,3.5,0,0,1-.76-1.79,4,4,0,0,1,0-.53" transform="translate(-15.36 -35.26)"/><path class="cls-14" d="M792.57,205.86l5,3.53.06.07a3.64,3.64,0,0,0,.32.32l-5-3.53a3.64,3.64,0,0,1-.32-.32l-.06-.07" transform="translate(-15.36 -35.26)"/><path class="cls-13" d="M793,206.26l5,3.53.31.25-5-3.53-.31-.25" transform="translate(-15.36 -35.26)"/></g></g></g><g class="cls-2"><g class="cls-16"><g class="cls-2"><path class="cls-6" d="M793.66,220.35l5,3.53a4.63,4.63,0,0,0-1.31,0,5.19,5.19,0,0,0-2.54,1.13l-5-3.53a5.19,5.19,0,0,1,2.54-1.13,4.63,4.63,0,0,1,1.31,0" transform="translate(-15.36 -35.26)"/><path class="cls-8" d="M789.8,221.52l5,3.53a4.28,4.28,0,0,0-.45.45l-5-3.53a4.28,4.28,0,0,1,.45-.45" transform="translate(-15.36 -35.26)"/><path class="cls-9" d="M789.36,222l5,3.53a4.44,4.44,0,0,0-.33.44l0,0-5-3.53,0,0a4.44,4.44,0,0,1,.33-.44" transform="translate(-15.36 -35.26)"/><path class="cls-10" d="M789,222.43l5,3.53a4.47,4.47,0,0,0-.25.43l-5-3.53a4.47,4.47,0,0,1,.25-.43" transform="translate(-15.36 -35.26)"/><path class="cls-11" d="M788.76,222.85l5,3.53a4.55,4.55,0,0,0-.2.45l-5-3.53a4.55,4.55,0,0,1,.2-.45" transform="translate(-15.36 -35.26)"/><path class="cls-12" d="M788.55,223.3l5,3.53a4.81,4.81,0,0,0-.17.51l-5-3.53a4.81,4.81,0,0,1,.17-.51" transform="translate(-15.36 -35.26)"/><path class="cls-13" d="M788.38,223.81l5,3.53a5.3,5.3,0,0,0-.13.64l-5-3.53a5.3,5.3,0,0,1,.13-.64" transform="translate(-15.36 -35.26)"/><path class="cls-14" d="M788.26,224.45l5,3.53a6.31,6.31,0,0,0-.06.94l-5-3.53a6.31,6.31,0,0,1,.06-.94" transform="translate(-15.36 -35.26)"/><path class="cls-15" d="M788.2,225.39l5,3.53a8.1,8.1,0,0,0,.09,1.07l-5-3.53a8.1,8.1,0,0,1-.09-1.07" transform="translate(-15.36 -35.26)"/></g></g></g><polygon class="cls-17" points="794.98 162.1 799.95 165.64 785.43 168.2 780.47 164.66 794.98 162.1"/><g class="cls-2"><g class="cls-18"><g class="cls-2"><path class="cls-6" d="M795,220.63l5,3.53a5.8,5.8,0,0,0-1.32-.27l-5-3.53a5.8,5.8,0,0,1,1.32.27" transform="translate(-15.36 -35.26)"/></g></g></g><polygon class="cls-19" points="772.93 191.19 777.89 194.73 778.43 198.46 773.47 194.92 772.93 191.19"/><g class="cls-2"><g class="cls-20"><g class="cls-2"><path class="cls-6" d="M816.3,197.78l5,3.53-.23-.15q-1.67-1-5.73-.26l-5-3.53q4.06-.72,5.73.26l.23.15" transform="translate(-15.36 -35.26)"/></g></g></g><g class="cls-2"><g class="cls-21"><g class="cls-2"><path class="cls-15" d="M788.83,230.19l5,3.53a6.3,6.3,0,0,0,1.22,3.17l-5-3.53a6.3,6.3,0,0,1-1.22-3.17" transform="translate(-15.36 -35.26)"/><path class="cls-14" d="M790,233.36l5,3.53a3.57,3.57,0,0,0,.39.4l-5-3.53a3.57,3.57,0,0,1-.39-.4" transform="translate(-15.36 -35.26)"/><path class="cls-13" d="M790.44,233.76l5,3.53.27.21-5-3.53-.27-.21" transform="translate(-15.36 -35.26)"/></g></g></g><g class="cls-2"><g class="cls-22"><g class="cls-2"><path class="cls-13" d="M827.77,185.88l5,3.53a7.54,7.54,0,0,1,.6.47l-5-3.53a7.54,7.54,0,0,0-.6-.47" transform="translate(-15.36 -35.26)"/><path class="cls-14" d="M828.37,186.35l5,3.53a7.88,7.88,0,0,1,.86.88l-5-3.53a7.88,7.88,0,0,0-.86-.88" transform="translate(-15.36 -35.26)"/><path class="cls-15" d="M829.23,187.23l5,3.53a12.88,12.88,0,0,1,2.55,6.51l-5-3.53a12.88,12.88,0,0,0-2.55-6.51" transform="translate(-15.36 -35.26)"/></g></g></g><g class="cls-2"><g class="cls-23"><g class="cls-2"><path class="cls-6" d="M800.17,246.52l5,3.53q-13.38,2.36-19.28,0a10.64,10.64,0,0,1-2.17-1.18l-5-3.53a10.64,10.64,0,0,0,2.17,1.18q5.9,2.39,19.28,0" transform="translate(-15.36 -35.26)"/></g></g></g><polygon class="cls-19" points="816.41 158.48 821.38 162.01 822.39 169.02 817.43 165.49 816.41 158.48"/><polygon class="cls-17" points="817.43 165.49 822.39 169.02 807.96 171.57 802.99 168.04 817.43 165.49"/><polygon class="cls-17" points="807.67 194.68 812.63 198.21 784.58 188.89 779.62 185.36 807.67 194.68"/><polygon class="cls-17" points="804.36 207.81 809.33 211.34 789.78 214.79 784.81 211.26 804.36 207.81"/><polygon class="cls-19" points="823.65 172.24 828.62 175.77 829.97 185.08 825 181.54 823.65 172.24"/><g class="cls-2"><g class="cls-24"><g class="cls-2"><path class="cls-15" d="M840.36,216.81l5,3.53a10,10,0,0,1,.09,1.3l-5-3.53a10,10,0,0,0-.09-1.3" transform="translate(-15.36 -35.26)"/><path class="cls-14" d="M840.45,218.11l5,3.53q0,.43,0,.94c0,.92-.11,1.93-.25,3l-5-3.53c.13-1.06.21-2.06.25-3q0-.51,0-.94" transform="translate(-15.36 -35.26)"/></g></g></g><g class="cls-2"><g class="cls-25"><g class="cls-2"><path class="cls-10" d="M837.56,234.18l5,3.53q-.24.42-.51.81l-5-3.53q.27-.4.51-.81" transform="translate(-15.36 -35.26)"/><path class="cls-9" d="M837.05,235l5,3.53a14.43,14.43,0,0,1-1.06,1.39l-5-3.53a14.43,14.43,0,0,0,1.06-1.39" transform="translate(-15.36 -35.26)"/><path class="cls-8" d="M836,236.38l5,3.53a13.87,13.87,0,0,1-1.44,1.44l-5-3.53a13.87,13.87,0,0,0,1.44-1.44" transform="translate(-15.36 -35.26)"/><path class="cls-6" d="M834.55,237.82l5,3.53a14.42,14.42,0,0,1-2.65,1.81q-3.61,1.93-12.18,3.44l-5-3.53q8.56-1.51,12.18-3.44a14.42,14.42,0,0,0,2.65-1.81" transform="translate(-15.36 -35.26)"/></g></g></g><polygon class="cls-17" points="832.65 202.43 837.62 205.96 827.17 202.44 822.2 198.91 832.65 202.43"/><polygon class="cls-26" points="835.97 190.71 840.93 194.24 837.62 205.96 832.65 202.43 835.97 190.71"/><path class="cls-27" d="M840.19,222,851.33,226,848,237.69l-10.45-3.51a14.13,14.13,0,0,1-5.66,5.45q-3.61,1.93-12.18,3.44l-19.55,3.45q-13.38,2.36-19.28,0T773.82,236l-1.06-7.31q-.77-5.33,1.71-8.56t8.35-4.59a11.27,11.27,0,0,1-4.52-2.81,8.53,8.53,0,0,1-1.81-4.47l-.92-6.33q-.87-6,2-8.77t14.8-4.9l16.22-2.86q13-2.29,17.58-.43t5.58,8.73l1,7-14.44,2.55c0-.18-.05-.43-.08-.77s0-.58-.06-.74c-.31-2.13-1-3.52-2.14-4.17s-3-.74-5.73-.26l-14.52,2.56a5.77,5.77,0,0,0-3.21,1.46,3,3,0,0,0-.81,2.69,3.47,3.47,0,0,0,.82,1.86,4.41,4.41,0,0,0,1.83,1.18l31,10.05a11.45,11.45,0,0,0,0-1.69,26.45,26.45,0,0,0-.3-2.72c0-.18,0-.46-.09-.85s-.05-.67-.08-.88-.08-.5-.11-.65a3.55,3.55,0,0,1-.08-.38l14.17-2.5,1.35,9.3a12.85,12.85,0,0,1,.07,2.24C840.4,220,840.32,221,840.19,222ZM798.4,234.29,823,229.94,795,220.63a5.8,5.8,0,0,0-1.32-.27,4.63,4.63,0,0,0-1.31,0,4.78,4.78,0,0,0-3.32,2,5.57,5.57,0,0,0-.74,4.05l.54,3.73c.31,2.17,1.14,3.53,2.47,4.12s3.69.58,7.1,0" transform="translate(-15.36 -35.26)"/></g><path class="cls-28" d="M179.12,193.12s8.35-7.16,5.53-11.27c0,0-18.58-28.89-49.39-18.32,0,0,13.21-8.29,45.83-8.61,0,0,2.51-33.9-41-23,0,0,44-17.5,57.51,20.55C197.59,152.49,203.59,168.7,179.12,193.12Z" transform="translate(-15.36 -35.26)"/><g class="cls-29"><path class="cls-30" d="M187.68,182.93c13.92-18.64,9.55-30.44,9.55-30.44-13.52-38-57.51-20.55-57.51-20.55a71.34,71.34,0,0,1,11.73-2s45.81-6.21,36.29,52.63.35-.35.35-.35" transform="translate(-15.36 -35.26)"/><path class="cls-31" d="M187.68,182.93c13.92-18.64,9.55-30.44,9.55-30.44-13.52-38-57.51-20.55-57.51-20.55a71.34,71.34,0,0,1,11.73-2s45.81-6.21,36.29,52.63.35-.35.35-.35" transform="translate(-15.36 -35.26)"/></g><path class="cls-28" d="M35.62,117.6s-8.35,7.16-5.53,11.27c0,0,18.58,28.89,49.39,18.32,0,0-13.21,8.29-45.83,8.61,0,0-2.51,33.9,41,23,0,0-44,17.5-57.51-20.55C17.15,158.23,11.15,142,35.62,117.6Z" transform="translate(-15.36 -35.26)"/><g class="cls-29"><path class="cls-30" d="M27.06,127.79c-13.92,18.64-9.55,30.44-9.55,30.44C31,196.28,75,178.78,75,178.78a71.43,71.43,0,0,1-11.73,2S17.47,187,27,128.17s-.35.35-.35.35" transform="translate(-15.36 -35.26)"/></g><circle class="cls-32" cx="108.89" cy="157.22" r="48.79" transform="translate(-15.84 -34.93) rotate(-0.18)"/><g class="cls-33"><path d="M139.77,127.46s31.75,31-2.39,61.3C137.38,188.76,162.17,163.24,139.77,127.46Z" transform="translate(-15.36 -35.26)"/></g><path class="cls-34" d="M17.24,158.23s-4.93-12.45,11-32.18c0,0,31.26-46.47,94.2-32.16l-3.62,20.7,51.69-26.8L143.68,35.26,138.39,51s-122-14.82-123,96.51C15.36,147.54,15.71,154.94,17.24,158.23Z" transform="translate(-15.36 -35.26)"/><g class="cls-35"><path class="cls-36" d="M37.89,88.39s38.54-42.74,102.49-33.3l3.74-18.88L159.46,83S137.82,38.75,37.89,88.39Z" transform="translate(-15.36 -35.26)"/></g><path class="cls-34" d="M197.5,152.49s4.93,12.45-11,32.18c0,0-31.27,46.47-94.2,32.16l3.62-20.7-51.69,26.8,26.87,52.53,5.29-15.77s122,14.82,123-96.51C199.38,163.18,199,155.78,197.5,152.49Z" transform="translate(-15.36 -35.26)"/><g class="cls-35"><path class="cls-36" d="M176.85,222.33s-38.54,42.74-102.49,33.3l-3.74,18.88L55.29,227.77S76.92,272,176.85,222.33Z" transform="translate(-15.36 -35.26)"/></g><g class="cls-37"><path class="cls-3" d="M131.16,200.77s55.63-45.5-4.16-89.13C127,111.64,202.7,144,131.16,200.77Z" transform="translate(-15.36 -35.26)"/></g></g></g></svg>